<svg id="Layer_1" data-name="Layer 1" xmlns="http://www.w3.org/2000/svg" viewBox="0 0 128 128"><defs><style>.cls-1{fill:#1d75b8;}.cls-2{fill:#2d3e50;}</style></defs><title>a</title><path class="cls-1" d="M70.68221,10.32649h-3.183v6.18235Q65.76243,16.37424,64,16.37639q-1.76241,0-3.49492.12817V10.32649H57.322L64,1.55075Z"></path><path class="cls-1" d="M108.16074,19.8414l-1.4783,10.92911-2.2559-2.25162-4.37078,4.37078a46.99644,46.99644,0,0,0-4.94331-4.94756l4.37078-4.3708-2.2516-2.2516Z"></path><path class="cls-1" d="M117.67562,70.68007V67.497h-6.178q.12814-1.73034.12817-3.49492,0-1.76241-.13245-3.49919h6.18232v-3.183l8.77577,6.68222Z"></path><path class="cls-1" d="M97.23164,106.6803l2.2516-2.25162-4.37078-4.37078A47.82484,47.82484,0,0,0,100.06,95.1146l4.3665,4.36653,2.2559-2.25162,1.4783,10.92911Z"></path><path class="cls-1" d="M70.68221,117.67776,64,126.44925,57.322,117.67776h3.183v-6.18232q1.73038.12814,3.49492.12817,1.76241,0,3.49919-.13245v6.1866Z"></path><path class="cls-1" d="M28.521,104.42868l2.25162,2.25162-10.92911,1.4783,1.4783-10.92911,2.2516,2.25162,4.3708-4.3708a47.444,47.444,0,0,0,4.94756,4.94758Z"></path><path class="cls-1" d="M16.37853,64.00213q0,1.76241.12817,3.49492H10.32435v3.183L1.54861,64.00213l8.77574-6.68222v3.183H16.511Q16.37638,62.23973,16.37853,64.00213Z"></path><path class="cls-1" d="M32.88751,27.9421a47.82433,47.82433,0,0,0-4.94328,4.94756l-4.3708-4.37078-2.2516,2.25162L19.84353,19.8414l10.92911,1.4783L28.521,23.57129Z"></path><path class="cls-2" d="M101.39133,50.69162q-.38052-1.06943-.82011-2.11041a39.74638,39.74638,0,0,0-36.2839-24.26436c-.094-.00219-.19026-.00219-.28432-.00219s-.19026,0-.2843.00219A39.7471,39.7471,0,0,0,27.4326,48.58121q-.43959,1.0399-.82011,2.11041a39.71507,39.71507,0,0,0,0,26.61754q.38052,1.06943.8223,2.11043a39.74291,39.74291,0,0,0,36.2839,24.26435c.094.00219.19026.00219.2843.00219s.19028,0,.28432-.00219a39.74759,39.74759,0,0,0,36.2839-24.26435q.43959-1.03992.82011-2.11043a39.71507,39.71507,0,0,0,0-26.61754ZM99.095,63.9993A34.97289,34.97289,0,0,1,97.387,74.827H84.86445a74.01986,74.01986,0,0,0,0-21.65313H97.387A34.94853,34.94853,0,0,1,99.095,63.9993Zm-70.18622,0A34.885,34.885,0,0,1,30.619,53.17383H43.13938a74.01986,74.01986,0,0,0,0,21.65313H30.619A34.90928,34.90928,0,0,1,28.9088,63.9993Zm18.02714,0a66.8318,66.8318,0,0,1,.86823-10.82547H61.70578V74.827H47.80417A66.83908,66.83908,0,0,1,46.93594,63.9993ZM66.2984,29.23948l.0006.00013c5.62518,1.63594,10.47149,9.16129,12.969,19.3416H66.2984ZM61.70578,29.24V48.58121h-12.97C51.2332,38.40144,56.0813,30.87636,61.70578,29.24Zm0,50.17959V98.76079c-5.62448-1.63638-10.47258-9.16145-12.97-19.34121Zm4.59353,19.34151-.00091.00023V79.41958H79.268C76.77049,89.59989,71.92419,97.12523,66.29931,98.76109ZM66.2984,74.827V53.17383H80.19966a67.937,67.937,0,0,1,0,21.65313Zm29.2253-26.24575H84.005A50.30641,50.30641,0,0,0,79.73165,36.507a32.49842,32.49842,0,0,0-3.451-5.38211A35.28136,35.28136,0,0,1,95.52371,48.58121ZM51.721,31.12486A32.49414,32.49414,0,0,0,48.27217,36.507a50.4009,50.4009,0,0,0-4.27332,12.07423H32.48231A35.28161,35.28161,0,0,1,51.721,31.12486ZM32.48231,79.41958H43.99885A50.45246,50.45246,0,0,0,48.27217,91.496a32.46534,32.46534,0,0,0,3.44666,5.37992A35.28468,35.28468,0,0,1,32.48231,79.41958Zm43.8005,17.45633A32.47048,32.47048,0,0,0,79.73165,91.496,50.3578,50.3578,0,0,0,84.005,79.41958H95.52371A35.29321,35.29321,0,0,1,76.28281,96.87591Z"></path></svg>